<svg width="19" height="17" viewBox="0 0 19 17" fill="none" xmlns="http://www.w3.org/2000/svg">
<path d="M8.57488 16.5605C8.51801 16.5605 8.46176 16.5487 8.40966 16.5259C8.35756 16.5032 8.31074 16.4698 8.27214 16.4281L0.109534 7.59846C0.0551195 7.5396 0.0190464 7.46615 0.00572923 7.3871C-0.00758796 7.30805 0.00242834 7.22684 0.0345524 7.15339C0.0666764 7.07995 0.119515 7.01746 0.1866 6.97358C0.253686 6.9297 0.332109 6.90633 0.412271 6.90633H4.3413C4.40029 6.90634 4.45859 6.919 4.51228 6.94346C4.56596 6.96791 4.61377 7.0036 4.65249 7.04811L7.38046 10.1866C7.67528 9.55634 8.246 8.507 9.24751 7.22836C10.7281 5.33806 13.482 2.55801 18.1937 0.0483808C18.2848 -0.000114843 18.3908 -0.0127014 18.4907 0.0131066C18.5905 0.0389147 18.6771 0.101241 18.7333 0.187779C18.7895 0.274317 18.8112 0.378776 18.7941 0.480529C18.777 0.582282 18.7224 0.673932 18.6411 0.737383C18.6231 0.751442 16.8064 2.18205 14.7157 4.80246C12.7915 7.21389 10.2336 11.1569 8.97495 16.2474C8.95284 16.3368 8.90142 16.4162 8.82888 16.473C8.75635 16.5298 8.66688 16.5607 8.57475 16.5607L8.57488 16.5605Z" fill="#FFDA00"/>
</svg>
