<svg width="40" height="40" viewBox="0 0 40 40" fill="none" xmlns="http://www.w3.org/2000/svg">
<circle cx="20" cy="20" r="19.5122" stroke="#CECECE" stroke-width="0.97561"/>
<path fill-rule="evenodd" clip-rule="evenodd" d="M11 16.6667C11 14.6416 12.6416 13 14.6667 13H25.6667C27.6917 13 29.3333 14.6416 29.3333 16.6667V24C29.3333 26.025 27.6917 27.6667 25.6667 27.6667H14.6667C12.6416 27.6667 11 26.025 11 24V16.6667ZM14.6667 14.8333C13.6541 14.8333 12.8333 15.6541 12.8333 16.6667V24C12.8333 25.0125 13.6541 25.8333 14.6667 25.8333H25.6667C26.6792 25.8333 27.5 25.0125 27.5 24V16.6667C27.5 15.6541 26.6792 14.8333 25.6667 14.8333H14.6667Z" fill="white"/>
<path fill-rule="evenodd" clip-rule="evenodd" d="M14.8675 17.0107C15.1838 16.6154 15.7606 16.5513 16.156 16.8675L20.1667 20.0761L24.1774 16.8675C24.5727 16.5513 25.1495 16.6154 25.4658 17.0107C25.7821 17.406 25.718 17.9829 25.3226 18.2991L20.1667 22.4239L15.0107 18.2991C14.6154 17.9829 14.5513 17.406 14.8675 17.0107Z" fill="white"/>
</svg>
