<svg width="40" height="40" viewBox="0 0 40 40" fill="none" xmlns="http://www.w3.org/2000/svg">
<circle cx="20" cy="20" r="19.5122" stroke="#CECECE" stroke-width="0.97561"/>
<path fill-rule="evenodd" clip-rule="evenodd" d="M14.4896 14.4896C16.0269 12.9523 18.153 12 20.5 12C22.847 12 24.9731 12.9523 26.5104 14.4896C28.0477 16.0269 29 18.153 29 20.5C29 22.847 28.0477 24.9731 26.5104 26.5104C24.9731 28.0477 22.847 29 20.5 29C18.153 29 16.0269 28.0477 14.4896 26.5104C12.9523 24.9731 12 22.847 12 20.5C12 18.153 12.9523 16.0269 14.4896 14.4896ZM20.5 13.7C18.622 13.7 16.9232 14.4602 15.6917 15.6917C14.4602 16.9232 13.7 18.622 13.7 20.5C13.7 22.378 14.4602 24.0768 15.6917 25.3083C16.9232 26.5398 18.622 27.3 20.5 27.3C22.378 27.3 24.0768 26.5398 25.3083 25.3083C26.5398 24.0768 27.3 22.378 27.3 20.5C27.3 18.622 26.5398 16.9232 25.3083 15.6917C24.0768 14.4602 22.378 13.7 20.5 13.7Z" fill="white"/>
<path fill-rule="evenodd" clip-rule="evenodd" d="M20.5 16.25C20.9694 16.25 21.35 16.6306 21.35 17.1V20.5C21.35 20.9694 20.9694 21.35 20.5 21.35C20.0306 21.35 19.65 20.9694 19.65 20.5V17.1C19.65 16.6306 20.0306 16.25 20.5 16.25Z" fill="white"/>
<path fill-rule="evenodd" clip-rule="evenodd" d="M19.899 19.899C20.2309 19.567 20.7691 19.567 21.101 19.899L22.801 21.599C23.133 21.9309 23.133 22.4691 22.801 22.801C22.4691 23.133 21.9309 23.133 21.599 22.801L19.899 21.101C19.567 20.7691 19.567 20.2309 19.899 19.899Z" fill="white"/>
</svg>
