<svg width="40" height="40" viewBox="0 0 40 40" fill="none" xmlns="http://www.w3.org/2000/svg">
<circle cx="20" cy="20" r="19.5122" stroke="#CECECE" stroke-width="0.97561"/>
<path fill-rule="evenodd" clip-rule="evenodd" d="M21.2475 15.4366C21.4148 15.0199 21.8882 14.8177 22.3049 14.985C22.9382 15.2393 23.511 15.6235 23.9865 16.113C24.4619 16.6025 24.8294 17.1863 25.0651 17.8266C25.2203 18.248 25.0044 18.7153 24.5831 18.8705C24.1617 19.0256 23.6944 18.8097 23.5392 18.3884C23.3821 17.9615 23.1371 17.5723 22.8201 17.246C22.5032 16.9196 22.1212 16.6635 21.6991 16.494C21.2824 16.3267 21.0802 15.8533 21.2475 15.4366Z" fill="white"/>
<path fill-rule="evenodd" clip-rule="evenodd" d="M21.5959 12.2336C21.7121 11.7999 22.1579 11.5426 22.5916 11.6588C23.9701 12.0281 25.2271 12.7539 26.2362 13.763C27.2453 14.7721 27.9711 16.0291 28.3404 17.4076C28.4566 17.8413 28.1993 18.2871 27.7655 18.4033C27.3318 18.5195 26.886 18.2622 26.7698 17.8284C26.4743 16.7256 25.8937 15.7201 25.0864 14.9128C24.2791 14.1054 23.2735 13.5249 22.1707 13.2294C21.737 13.1132 21.4796 12.6674 21.5959 12.2336Z" fill="white"/>
<path fill-rule="evenodd" clip-rule="evenodd" d="M14.7711 13.9961C16.7371 13.3404 18.7238 14.5719 19.2757 16.5658C19.6517 17.9244 19.2956 19.3491 18.4272 20.3246C18.605 20.5549 18.7994 20.7764 19.0104 20.9875C19.2203 21.1976 19.4404 21.3913 19.6694 21.5685C20.6445 20.6933 22.0735 20.3331 23.4361 20.7108C25.4295 21.2634 26.6587 23.2516 26.004 25.2175C25.5744 26.5074 24.7734 27.2911 23.705 27.5491C22.7124 27.7888 21.6421 27.534 20.6981 27.1416C18.7968 26.3512 16.9194 24.7944 16.062 23.9364C15.1844 23.0581 13.6343 21.178 12.8511 19.2803C12.4622 18.3379 12.2118 17.2716 12.452 16.2835C12.7105 15.2204 13.4902 14.4234 14.7711 13.9961ZM17.7086 16.9995C17.373 15.7872 16.2582 15.2142 15.2856 15.5386C14.4306 15.8238 14.1341 16.2477 14.032 16.6676C13.9117 17.1626 14.0163 17.8414 14.3541 18.66C15.0244 20.2841 16.4146 21.9888 17.2122 22.787C17.9905 23.5659 19.6934 24.963 21.3222 25.6401C22.1433 25.9814 22.8255 26.0888 23.3234 25.9685C23.7457 25.8666 24.1734 25.5683 24.4613 24.7037C24.786 23.7288 24.212 22.6132 23.0017 22.2777C22.101 22.0281 21.175 22.3173 20.6238 22.9076C20.2679 23.2887 19.5895 23.506 19.0123 23.1031C18.6062 22.8197 18.2205 22.4975 17.8602 22.1369C17.4992 21.7756 17.1769 21.389 16.8934 20.982C16.4931 20.4073 16.7067 19.7315 17.0851 19.3748C17.671 18.8225 17.9574 17.8984 17.7086 16.9995Z" fill="white"/>
</svg>
