<svg width="15" height="13" viewBox="0 0 15 13" fill="none" xmlns="http://www.w3.org/2000/svg">
<path d="M5.09645 6.71755C5.29171 6.52229 5.29171 6.20571 5.09645 6.01045L1.207 2.121C0.816536 1.73054 0.816535 1.09747 1.207 0.707C1.59747 0.316535 2.23053 0.316535 2.621 0.707L7.92445 6.01045C8.11971 6.20571 8.11971 6.52229 7.92445 6.71755L2.621 12.021C2.23053 12.4115 1.59746 12.4115 1.207 12.021C0.816534 11.6305 0.816535 10.9975 1.207 10.607L5.09645 6.71755Z" fill="white"/>
<path d="M11.0964 6.71755C11.2917 6.52229 11.2917 6.20571 11.0964 6.01045L7.207 2.121C6.81654 1.73054 6.81653 1.09747 7.207 0.707C7.59747 0.316535 8.23053 0.316535 8.621 0.707L13.9244 6.01045C14.1197 6.20571 14.1197 6.52229 13.9244 6.71755L8.621 12.021C8.23053 12.4115 7.59746 12.4115 7.207 12.021C6.81653 11.6305 6.81653 10.9975 7.207 10.607L11.0964 6.71755Z" fill="white"/>
</svg>
