<svg width="25" height="25" viewBox="0 0 25 25" fill="none" xmlns="http://www.w3.org/2000/svg">
<g clip-path="url(#clip0_142_791)">
<path d="M4.04673 15.1915C4.21357 15.3032 4.40225 15.3565 4.58892 15.3565C4.90386 15.3565 5.21309 15.2044 5.40142 14.923C6.97939 12.565 9.61724 11.1572 12.4576 11.1572C15.2896 11.1572 17.9231 12.5585 19.5022 14.9058C19.8033 15.3533 20.4101 15.472 20.8576 15.1709C21.3051 14.8698 21.4238 14.263 21.1227 13.8155C19.861 11.9402 18.0521 10.5565 15.9851 9.81626C17.2247 8.80361 18.0176 7.26372 18.0176 5.54199C18.0176 2.49956 15.5424 0.0244141 12.5 0.0244141C9.45757 0.0244141 6.98242 2.49956 6.98242 5.54199C6.98242 7.25137 7.76377 8.78159 8.98809 9.79448C6.88867 10.532 5.05259 11.9325 3.77822 13.8368C3.47827 14.285 3.59849 14.8916 4.04673 15.1915ZM12.5 1.97754C14.4654 1.97754 16.0645 3.57656 16.0645 5.54199C16.0645 7.50742 14.4654 9.10645 12.5 9.10645C10.5346 9.10645 8.93555 7.50742 8.93555 5.54199C8.93555 3.57656 10.5346 1.97754 12.5 1.97754ZM16.3944 17.3159L14.9386 18.3662C14.722 18.5224 14.6313 18.7994 14.7141 19.0522L15.3003 20.7516C15.3251 20.8272 15.3346 20.9012 15.3314 20.9717C15.3107 21.4281 14.7387 21.7403 14.3191 21.4376L12.8633 20.3871C12.755 20.309 12.6275 20.2699 12.5 20.2699C12.3726 20.2699 12.2451 20.309 12.1368 20.3871L10.681 21.4376C10.2614 21.7403 9.68667 21.4281 9.66851 20.9717C9.66572 20.9012 9.67549 20.8272 9.70024 20.7516L10.286 19.0522C10.3687 18.7994 10.2781 18.5224 10.0615 18.3662L8.60561 17.3159C8.12124 16.9665 8.37017 16.1377 8.9689 16.1377H10.7684C11.0362 16.1377 11.2735 16.0346 11.3562 15.7818L11.9123 14.0715C12.0048 13.7888 12.2524 13.6475 12.5 13.6475C12.7477 13.6475 12.9953 13.7888 13.0878 14.0715L13.6439 15.7818C13.7267 16.0346 13.9639 16.1377 14.2317 16.1377H16.0312C16.6299 16.1377 16.8788 16.9665 16.3944 17.3159ZM24.744 20.7339L23.2882 21.7841C23.0716 21.9404 22.9809 22.2174 23.0637 22.4702L23.65 24.1695C23.6747 24.2452 23.6842 24.3191 23.6811 24.3896C23.6603 24.846 23.0883 25.1583 22.6688 24.8556L21.2129 23.8051C21.1046 23.727 20.9771 23.6879 20.8497 23.6879C20.7222 23.6879 20.5947 23.727 20.4864 23.8051L19.0306 24.8556C18.611 25.1583 18.0363 24.846 18.0181 24.3896C18.0153 24.3191 18.0251 24.2452 18.0499 24.1695L18.6356 22.4702C18.7184 22.2174 18.6277 21.9404 18.4111 21.7841L16.9552 20.7339C16.4708 20.3845 16.7198 19.5557 17.3185 19.5557H19.118C19.3858 19.5557 19.6231 19.4526 19.7058 19.1998L20.2619 17.4895C20.3544 17.2068 20.602 17.0654 20.8497 17.0654C21.0973 17.0654 21.3449 17.2068 21.4375 17.4895L21.9935 19.1998C22.0763 19.4526 22.3135 19.5557 22.5813 19.5557H24.3808C24.9795 19.5557 25.2284 20.3845 24.744 20.7339ZM8.04482 20.7339L6.58896 21.7841C6.37236 21.9404 6.28169 22.2174 6.36445 22.4702L6.95073 24.1695C6.97549 24.2452 6.98501 24.3191 6.98184 24.3896C6.96108 24.846 6.38906 25.1583 5.96953 24.8556L4.51367 23.8051C4.40537 23.727 4.27788 23.6879 4.15039 23.6879C4.0229 23.6879 3.89541 23.727 3.78711 23.8051L2.3313 24.8556C1.91177 25.1583 1.33701 24.846 1.31885 24.3896C1.31606 24.3191 1.32583 24.2452 1.35059 24.1695L1.93633 22.4702C2.01909 22.2174 1.92842 21.9404 1.71182 21.7841L0.255957 20.7339C-0.228418 20.3845 0.0205078 19.5557 0.619238 19.5557H2.41875C2.68652 19.5557 2.92383 19.4526 3.00654 19.1998L3.5626 17.4895C3.65513 17.2068 3.90273 17.0654 4.15039 17.0654C4.39805 17.0654 4.64565 17.2068 4.73818 17.4895L5.29424 19.1998C5.377 19.4526 5.61426 19.5557 5.88203 19.5557H7.68154C8.28027 19.5557 8.5292 20.3845 8.04482 20.7339Z" fill="#1A1A1A"/>
</g>
<defs>
<clipPath id="clip0_142_791">
<rect width="25" height="25" fill="white"/>
</clipPath>
</defs>
</svg>
