<svg width="25" height="25" viewBox="0 0 25 25" fill="none" xmlns="http://www.w3.org/2000/svg">
<path d="M22.0903 13.757C21.8733 13.625 21.6939 13.4395 21.5694 13.2181C21.4449 12.9967 21.3795 12.747 21.3795 12.4931C21.3795 12.2391 21.4449 11.9894 21.5694 11.7681C21.6939 11.5467 21.8733 11.3611 22.0903 11.2292C22.582 10.9405 22.9392 10.4685 23.0833 9.91669C23.1666 9.64509 23.1947 9.35959 23.1661 9.07695C23.1375 8.79432 23.0527 8.52025 22.9166 8.27086L21.3611 5.62503C21.0698 5.12551 20.5931 4.76115 20.0347 4.61114C19.5239 4.47321 18.9803 4.52758 18.5069 4.76392C18.2617 4.91879 17.9775 5.00099 17.6875 5.00099C17.3974 5.00099 17.1133 4.91879 16.868 4.76392C16.6591 4.64332 16.4852 4.4704 16.3635 4.26218C16.2417 4.05396 16.1763 3.81761 16.1736 3.57642C16.1737 3.00222 15.948 2.45102 15.5452 2.04177C15.1425 1.63252 14.5949 1.39803 14.0208 1.38892H10.9791C10.4178 1.39006 9.87836 1.60697 9.47247 1.99476C9.06659 2.38255 8.82532 2.91153 8.79859 3.47225C8.8074 3.75672 8.73585 4.03792 8.59214 4.28358C8.44843 4.52924 8.23838 4.72941 7.98609 4.86114C7.77495 4.98304 7.53544 5.04721 7.29164 5.04721C7.04784 5.04721 6.80834 4.98304 6.5972 4.86114C6.34999 4.71683 6.07641 4.62344 5.79257 4.58647C5.50872 4.5495 5.22035 4.56969 4.94442 4.64586C4.39954 4.79228 3.93199 5.14294 3.63887 5.62503L2.08331 8.27086C1.7976 8.7678 1.71975 9.35749 1.86672 9.91156C2.01369 10.4656 2.37358 10.9392 2.86803 11.2292C3.09612 11.3598 3.28245 11.5525 3.40538 11.7848C3.52831 12.0172 3.58278 12.2796 3.56248 12.5417C3.56468 12.7876 3.50155 13.0297 3.37954 13.2432C3.25753 13.4567 3.08101 13.634 2.86803 13.757C2.37122 14.0483 2.00986 14.5244 1.86284 15.0813C1.71581 15.6381 1.79507 16.2306 2.08331 16.7292L3.61109 19.375C3.88992 19.8546 4.34053 20.2103 4.87172 20.3702C5.40291 20.53 5.975 20.4821 6.4722 20.2361C6.7155 20.0794 6.99877 19.9961 7.28817 19.9961C7.57757 19.9961 7.86084 20.0794 8.10414 20.2361C8.31406 20.3573 8.4886 20.5313 8.61043 20.7409C8.73226 20.9504 8.79712 21.1882 8.79859 21.4306C8.80042 22.0083 9.03074 22.5619 9.43928 22.9704C9.84782 23.379 10.4014 23.6093 10.9791 23.6111H14.0208C14.5765 23.6105 15.1111 23.3984 15.5161 23.0179C15.9211 22.6374 16.1661 22.1171 16.2014 21.5625C16.1925 21.2781 16.2641 20.9969 16.4078 20.7512C16.5515 20.5055 16.7616 20.3054 17.0139 20.1736C17.225 20.0517 17.4645 19.9876 17.7083 19.9876C17.9521 19.9876 18.1916 20.0517 18.4028 20.1736C18.65 20.3179 18.9235 20.4113 19.2074 20.4483C19.4912 20.4853 19.7796 20.4651 20.0555 20.3889C20.614 20.2389 21.0906 19.8745 21.3819 19.375L22.9166 16.7361C23.2008 16.2342 23.2781 15.6413 23.1319 15.0834C23.0543 14.8045 22.9224 14.5437 22.7436 14.3161C22.5648 14.0885 22.3428 13.8984 22.0903 13.757ZM21.6041 15.9722L20.0764 18.6111C20.0308 18.6908 19.9699 18.7607 19.8972 18.8167C19.8245 18.8728 19.7414 18.9138 19.6528 18.9375C19.562 18.9621 19.4672 18.968 19.3741 18.9549C19.281 18.9418 19.1915 18.9099 19.1111 18.8611C18.6722 18.6069 18.1739 18.473 17.6666 18.473C17.1594 18.473 16.6611 18.6069 16.2222 18.8611C15.7725 19.1175 15.3975 19.4868 15.1344 19.9326C14.8714 20.3784 14.7292 20.8852 14.7222 21.4028C14.7222 21.587 14.649 21.7636 14.5188 21.8939C14.3886 22.0241 14.2119 22.0972 14.0278 22.0972H10.9791C10.795 22.0972 10.6183 22.0241 10.4881 21.8939C10.3579 21.7636 10.2847 21.587 10.2847 21.4028C10.2839 20.8971 10.1499 20.4004 9.89639 19.9628C9.64285 19.5252 9.2786 19.162 8.84025 18.9097C8.39288 18.6468 7.88459 18.5053 7.3657 18.4992C6.84682 18.4931 6.33534 18.6227 5.88192 18.875C5.80266 18.9209 5.7151 18.9507 5.62428 18.9627C5.53346 18.9746 5.44118 18.9684 5.35275 18.9446C5.26432 18.9207 5.18149 18.8795 5.10903 18.8235C5.03656 18.7675 4.9759 18.6977 4.93053 18.6181L3.39581 15.9722C3.35009 15.8932 3.32043 15.8058 3.30851 15.7153C3.29659 15.6247 3.30266 15.5327 3.32637 15.4445C3.35007 15.3558 3.39113 15.2727 3.44715 15.2C3.50317 15.1273 3.57305 15.0664 3.65275 15.0209C4.09137 14.7573 4.45431 14.3847 4.70628 13.9393C4.95826 13.4939 5.09068 12.9909 5.09068 12.4792C5.09068 11.9675 4.95826 11.4645 4.70628 11.0191C4.45431 10.5737 4.09137 10.2011 3.65275 9.93753C3.57305 9.89199 3.50317 9.83111 3.44715 9.7584C3.39113 9.68569 3.35007 9.60259 3.32637 9.51392C3.30266 9.4257 3.29659 9.33367 3.30851 9.24311C3.32043 9.15254 3.35009 9.06522 3.39581 8.98614L4.92359 6.34725C5.01965 6.19415 5.17161 6.08454 5.3472 6.04169C5.43795 6.01709 5.53276 6.01118 5.62587 6.02431C5.71898 6.03744 5.80845 6.06934 5.88886 6.11808C6.3278 6.37232 6.82606 6.5062 7.33331 6.5062C7.84056 6.5062 8.33882 6.37232 8.77775 6.11808C9.22847 5.86114 9.60407 5.49069 9.86722 5.04357C10.1304 4.59646 10.2719 4.08825 10.2778 3.56947C10.2778 3.38529 10.3509 3.20866 10.4812 3.07843C10.6114 2.94819 10.788 2.87503 10.9722 2.87503H14.0139C14.198 2.87503 14.3747 2.94819 14.5049 3.07843C14.6351 3.20866 14.7083 3.38529 14.7083 3.56947C14.7099 4.07509 14.8441 4.57144 15.0975 5.00893C15.351 5.44642 15.7149 5.80972 16.1528 6.06253C16.5988 6.32552 17.106 6.4671 17.6238 6.4732C18.1416 6.47929 18.652 6.34967 19.1041 6.09725C19.1837 6.05024 19.2718 6.01957 19.3634 6.00705C19.4549 5.99453 19.5481 6.00041 19.6373 6.02434C19.7266 6.04827 19.8101 6.08977 19.8831 6.14641C19.9561 6.20305 20.0171 6.27369 20.0625 6.35419L21.5903 8.99308C21.6362 9.07234 21.666 9.1599 21.6779 9.25072C21.6898 9.34154 21.6837 9.43382 21.6598 9.52225C21.6359 9.61068 21.5948 9.69351 21.5387 9.76598C21.4827 9.83844 21.4129 9.8991 21.3333 9.94447C20.8947 10.208 20.5318 10.5806 20.2798 11.026C20.0278 11.4714 19.8954 11.9744 19.8954 12.4861C19.8954 12.9979 20.0278 13.5009 20.2798 13.9462C20.5318 14.3916 20.8947 14.7642 21.3333 15.0278C21.413 15.0733 21.4829 15.1342 21.5389 15.2069C21.5949 15.2796 21.636 15.3627 21.6597 15.4514C21.7099 15.6256 21.6899 15.8125 21.6041 15.9722Z" fill="#1A1A1A"/>
<path d="M13.6528 11.1111L12.5 11.6736L11.3472 11.1111C11.2593 11.0583 11.1614 11.0242 11.0597 11.011C10.958 10.9979 10.8547 11.0059 10.7562 11.0347C10.6578 11.0634 10.5663 11.1122 10.4877 11.178C10.409 11.2438 10.3448 11.3252 10.2991 11.417C10.2535 11.5089 10.2273 11.6092 10.2223 11.7116C10.2172 11.814 10.2335 11.9164 10.27 12.0123C10.3065 12.1081 10.3624 12.1954 10.4342 12.2686C10.5061 12.3417 10.5923 12.3993 10.6875 12.4375L11.757 12.9722V13.993C11.757 14.1901 11.8352 14.3791 11.9746 14.5185C12.1139 14.6578 12.3029 14.7361 12.5 14.7361C12.6971 14.7361 12.8861 14.6578 13.0254 14.5185C13.1648 14.3791 13.2431 14.1901 13.2431 13.993V12.9583L14.3125 12.4236C14.4144 12.3905 14.5079 12.3359 14.5867 12.2633C14.6654 12.1907 14.7276 12.102 14.7688 12.0032C14.8101 11.9044 14.8295 11.7978 14.8258 11.6908C14.822 11.5837 14.7952 11.4788 14.7471 11.3831C14.699 11.2874 14.6308 11.2033 14.5471 11.1364C14.4635 11.0695 14.3664 11.0215 14.2624 10.9957C14.1585 10.9699 14.0502 10.9668 13.945 10.9867C13.8398 11.0066 13.7401 11.0491 13.6528 11.1111Z" fill="#1A1A1A"/>
<path d="M16.0486 8.17361L13.8264 7.0625C13.4144 6.85706 12.9604 6.75012 12.5 6.75012C12.0396 6.75012 11.5856 6.85706 11.1736 7.0625L8.95139 8.17361C8.45885 8.41816 8.04442 8.79545 7.75485 9.26294C7.46527 9.73043 7.31206 10.2695 7.3125 10.8194V14.2361C7.31672 14.7974 7.48015 15.3459 7.78379 15.818C8.08743 16.29 8.5188 16.6662 9.02778 16.9028L11.25 17.9722C11.6405 18.1593 12.0671 18.2589 12.5 18.2639C12.9425 18.2649 13.3795 18.1651 13.7778 17.9722L16.0069 16.9028C16.5094 16.6612 16.9336 16.2829 17.2309 15.8112C17.5281 15.3396 17.6864 14.7936 17.6875 14.2361V10.8194C17.6879 10.2695 17.5347 9.73043 17.2452 9.26294C16.9556 8.79545 16.5412 8.41816 16.0486 8.17361ZM16.2014 14.2361C16.2021 14.5151 16.1235 14.7886 15.9747 15.0247C15.8259 15.2607 15.6131 15.4497 15.3611 15.5694L13.1389 16.6667C12.9396 16.7627 12.7212 16.8125 12.5 16.8125C12.2788 16.8125 12.0604 16.7627 11.8611 16.6667L9.63889 15.5972C9.38687 15.4774 9.17408 15.2885 9.02531 15.0525C8.87654 14.8164 8.79792 14.5429 8.79861 14.2639V10.8194C8.79864 10.545 8.87538 10.276 9.02018 10.0429C9.16498 9.80972 9.37206 9.62169 9.61806 9.5C10.3125 9.16666 11.2153 8.69444 11.8403 8.38888C12.0444 8.28409 12.2706 8.22942 12.5 8.22942C12.7295 8.22942 12.9556 8.28409 13.1597 8.38888C13.7847 8.69444 14.7153 9.16666 15.3819 9.5C15.6279 9.62169 15.835 9.80972 15.9798 10.0429C16.1246 10.276 16.2014 10.545 16.2014 10.8194V14.2361Z" fill="#1A1A1A"/>
</svg>
