<svg width="51" height="51" viewBox="0 0 51 51" fill="none" xmlns="http://www.w3.org/2000/svg">
<g id="Group 39482">
<circle id="Ellipse 6" cx="25.5" cy="25.5" r="25.5" fill="white"/>
<g id="Group">
<path id="Vector" d="M20.9548 15.8411H14.1368C13.5092 15.8411 13.0004 16.3498 13.0004 16.9774V23.7955C13.0004 24.4231 13.5092 24.9318 14.1368 24.9318H20.9548C21.5824 24.9318 22.0912 24.4231 22.0912 23.7955V16.9774C22.0912 16.3498 21.5824 15.8411 20.9548 15.8411ZM19.8185 22.6591H15.2731V18.1137H19.8185V22.6591Z" fill="#1A1A1A"/>
<path id="Vector_2" d="M36.8637 19.25H25.5002C24.8726 19.25 24.3639 19.7587 24.3639 20.3863C24.3639 21.0139 24.8726 21.5227 25.5002 21.5227H36.8637C37.4913 21.5227 38 21.0139 38 20.3863C38 19.7588 37.4912 19.25 36.8637 19.25Z" fill="#1A1A1A"/>
<path id="Vector_3" d="M36.8637 30.6135H25.5002C24.8726 30.6135 24.3639 31.1223 24.3639 31.7499C24.3639 32.3774 24.8726 32.8862 25.5002 32.8862H36.8637C37.4913 32.8862 38 32.3774 38 31.7499C38 31.1223 37.4912 30.6135 36.8637 30.6135Z" fill="#1A1A1A"/>
<path id="Vector_4" d="M20.1594 28.6692L16.3765 32.4067L14.9538 30.9295C14.5173 30.4782 13.7977 30.4663 13.3464 30.9027C12.8952 31.3392 12.8832 32.0589 13.3197 32.5101L15.5401 34.818C15.7518 35.034 16.041 35.1567 16.3435 35.1589H16.3571C16.6551 35.158 16.9407 35.04 17.1526 34.8305L21.7503 30.2851C22.2259 29.8758 22.2797 29.1582 21.8703 28.6826C21.4609 28.2069 20.7434 28.1532 20.2678 28.5625C20.2293 28.5957 20.1931 28.6313 20.1594 28.6692Z" fill="#1A1A1A"/>
</g>
</g>
</svg>
